<?xml version="1.0" encoding="UTF-8"?>
<svg width="349px" height="62px" viewBox="0 0 349 62" version="1.1" xmlns="http://www.w3.org/2000/svg" xmlns:xlink="http://www.w3.org/1999/xlink">
    <!-- Generator: Sketch 54.1 (76490) - https://sketchapp.com -->
    <title>branding / logo / isik-logo-with-logotype</title>
    <desc>Created with Sketch.</desc>
    <defs>
        <polygon id="path-1" points="0 60.72 348.415056 60.72 348.415056 0.222816 0 0.222816"></polygon>
    </defs>
    <g id="Home" stroke="none" stroke-width="1" fill="none" fill-rule="evenodd">
        <g id="Home---Desktop" transform="translate(-786.000000, -59.000000)">
            <g id="Group-17" transform="translate(375.000000, 24.000000)">
                <g id="branding-/-logo-/-isik-logo-with-logotype" transform="translate(411.000000, 35.000000)">
                    <g id="Group-60">
                        <polygon id="Fill-1" fill="#283691" points="94.6936848 5.997552 93.9106608 5.997552 95.0907408 8.182944 95.7333168 9.409488 95.7803088 9.409488 96.4345008 8.229408 97.6848048 5.997552 96.8901648 5.997552 96.8901648 5.56512 98.8068048 5.56512 98.8068048 5.997552 98.2106928 5.997552 96.0142128 9.888912 96.0142128 13.10232 96.9957648 13.10232 96.9957648 13.534752 94.5183888 13.534752 94.5183888 13.10232 95.4883248 13.10232 95.4883248 9.92376 93.3499248 5.997552 92.7305808 5.997552 92.7305808 5.56512 94.6936848 5.56512"></polygon>
                        <polygon id="Fill-2" fill="#283691" points="105.279979 13.5346992 105.279979 13.0901232 109.709371 5.9858832 106.004395 5.9858832 106.004395 7.1427312 105.560347 7.1427312 105.560347 5.5539792 110.304955 5.5539792 110.304955 6.0101712 105.876619 13.1022672 110.036203 13.1022672 110.036203 11.8403472 110.504011 11.8403472 110.504011 13.5346992"></polygon>
                        <polygon id="Fill-3" fill="#283691" points="128.673864 5.997552 127.89084 5.997552 129.07092 8.182944 129.713496 9.409488 129.760488 9.409488 130.41468 8.229408 131.664984 5.997552 130.869816 5.997552 130.869816 5.56512 132.786984 5.56512 132.786984 5.997552 132.190872 5.997552 129.994392 9.888912 129.994392 13.10232 130.975416 13.10232 130.975416 13.534752 128.498568 13.534752 128.498568 13.10232 129.468504 13.10232 129.468504 9.92376 127.330104 5.997552 126.710232 5.997552 126.710232 5.56512 128.673864 5.56512"></polygon>
                        <polygon id="Fill-4" fill="#283691" points="165.306451 12.2374032 165.925795 10.8234192 168.274339 5.5534512 169.583251 5.5534512 169.583251 5.9858832 168.858835 5.9858832 168.858835 13.1022672 169.583251 13.1022672 169.583251 13.5341712 167.573683 13.5341712 167.573683 13.1022672 168.332419 13.1022672 168.332419 6.5941392 168.298099 6.5941392 167.760067 7.8201552 165.528739 12.7981392 165.002851 12.7981392 162.689155 7.6802352 162.209731 6.5698512 162.174355 6.5698512 162.186499 13.1022672 162.957907 13.1022672 162.957907 13.5341712 160.971571 13.5341712 160.971571 13.1022672 161.684371 13.1022672 161.684371 5.9858832 160.971571 5.9858832 160.971571 5.5534512 162.279955 5.5534512 164.640115 10.8350352 165.247843 12.2374032"></polygon>
                        <polygon id="Fill-5" fill="#283691" points="191.63269 8.7014928 194.577346 13.0786128 195.290674 13.0786128 195.290674 13.5348048 193.198738 13.5348048 193.198738 13.0786128 193.958002 13.0786128 191.258866 9.0710928 190.218706 10.0991088 190.218706 13.0907568 190.979026 13.0907568 190.979026 13.5348048 188.968402 13.5348048 188.968402 13.0907568 189.692818 13.0907568 189.692818 5.9859888 188.968402 5.9859888 188.968402 5.5535568 190.954738 5.5535568 190.954738 5.9859888 190.218706 5.9859888 190.218706 9.5029968 193.759474 5.9859888 192.895138 5.9859888 192.895138 5.5535568 195.009778 5.5535568 195.009778 5.9859888 194.40205 5.9859888"></polygon>
                        <polygon id="Fill-6" fill="#283691" points="207.337627 7.1543472 206.870347 7.1543472 206.870347 5.9858832 204.813787 5.9858832 204.813787 13.1022672 205.806955 13.1022672 205.806955 13.5346992 203.329579 13.5346992 203.329579 13.1022672 204.287899 13.1022672 204.287899 5.9858832 202.195963 5.9858832 202.195963 7.1543472 201.751915 7.1543472 201.751915 5.5534512 207.326011 5.5534512"></polygon>
                        <polygon id="Fill-7" fill="#283691" points="240.967214 5.997552 240.10235 5.997552 240.10235 13.10232 243.771422 13.10232 243.771422 11.699952 244.261934 11.699952 244.261934 13.534752 238.805054 13.534752 238.805054 13.10232 239.575934 13.10232 239.575934 5.997552 238.851518 5.997552 238.851518 5.56512 240.967214 5.56512"></polygon>
                        <polygon id="Fill-8" fill="#283691" points="298.095336 12.93864 298.539384 11.396352 300.197832 5.985936 299.462328 5.985936 299.462328 5.553504 301.437048 5.553504 301.437048 5.985936 300.724248 5.985936 298.364088 13.534752 297.744744 13.534752 295.384056 5.985936 294.6834 5.985936 294.6834 5.553504 296.680824 5.553504 296.680824 5.985936 295.909416 5.985936 297.603768 11.4312 298.048344 12.93864"></polygon>
                        <polygon id="Fill-9" fill="#283691" points="323.439864 8.7014928 326.38452 13.0786128 327.09732 13.0786128 327.09732 13.5348048 325.005384 13.5348048 325.005384 13.0786128 325.765176 13.0786128 323.06604 9.0710928 322.02588 10.0991088 322.02588 13.0907568 322.7862 13.0907568 322.7862 13.5348048 320.775576 13.5348048 320.775576 13.0907568 321.499992 13.0907568 321.499992 5.9859888 320.775576 5.9859888 320.775576 5.5535568 322.762968 5.5535568 322.762968 5.9859888 322.02588 5.9859888 322.02588 9.5029968 325.566648 5.9859888 324.702312 5.9859888 324.702312 5.5535568 326.816952 5.5535568 326.816952 5.9859888 326.209224 5.9859888"></polygon>
                        <polygon id="Fill-10" fill="#283691" points="346.190803 5.5536624 346.190803 5.9855664 346.903603 5.9855664 346.903603 13.1024784 346.190803 13.1024784 346.190803 13.5349104 348.165523 13.5349104 348.165523 13.1024784 347.428963 13.1024784 347.428963 5.9855664 348.165523 5.9855664 348.165523 5.5536624"></polygon>
                        <g id="Group-59" transform="translate(0.000000, 0.305184)">
                            <path d="M84.0228048,52.7408112 L84.0228048,55.9938192 L85.1817648,55.9938192 C85.5883248,55.9938192 85.9141008,56.0883312 86.1712368,56.2810512 C86.4320688,56.4801072 86.5624848,56.7668112 86.5635408,57.1622832 C86.5455888,57.5450832 86.4373488,57.8381232 86.1949968,58.0340112 C85.9658448,58.2225072 85.6796688,58.2969552 85.3581168,58.2969552 C84.9652848,58.2969552 84.6400368,58.2087792 84.4251408,58.0340112 C84.2081328,57.8476272 84.0138288,57.6163632 83.8839408,57.3544752 L81.7080528,58.6760592 C82.0422768,59.2711152 82.5296208,59.7521232 83.1753648,60.1365072 C83.8274448,60.5076912 84.6748848,60.7199472 85.7176848,60.7199472 C86.6643888,60.7199472 87.5155248,60.4210992 88.2336048,59.8313232 C88.9759728,59.2579152 89.3519088,58.4579952 89.3888688,57.4183632 C89.3608848,56.3776752 89.0440848,55.5719472 88.4585328,54.9885072 C87.8867088,54.3966192 87.1686288,54.0497232 86.3687088,53.8934352 L86.3687088,52.8765072 C86.3687088,49.4191632 84.0228048,50.8954512 84.0228048,52.7408112" id="Fill-11" fill="#283691"></path>
                            <mask id="mask-2" fill="white">
                                <use xlink:href="#path-1"></use>
                            </mask>
                            <g id="Clip-14"></g>
                            <polygon id="Fill-13" fill="#283691" mask="url(#mask-2)" points="69.147408 52.56768 73.905216 52.56768 73.905216 29.460288 69.147408 29.460288"></polygon>
                            <polygon id="Fill-15" fill="#283691" mask="url(#mask-2)" points="97.1256 52.56768 101.895024 52.56768 101.895024 29.460288 97.1256 29.460288"></polygon>
                            <polygon id="Fill-16" fill="#283691" mask="url(#mask-2)" points="183.64104 52.56768 188.404656 52.56768 188.404656 29.460288 183.64104 29.460288"></polygon>
                            <polygon id="Fill-17" fill="#283691" mask="url(#mask-2)" points="215.835101 52.5681024 231.607517 52.5681024 231.607517 48.3710304 220.588685 48.3710304 220.588685 45.0557184 229.872509 45.0557184 229.872509 40.9806144 220.588685 40.9806144 220.588685 33.6340224 231.120173 33.6340224 231.120173 29.4607104 215.835101 29.4607104"></polygon>
                            <polygon id="Fill-18" fill="#283691" mask="url(#mask-2)" points="275.178288 52.56768 279.945072 52.56768 279.945072 29.460288 275.178288 29.460288"></polygon>
                            <polygon id="Fill-19" fill="#283691" mask="url(#mask-2)" points="290.097509 52.5681024 294.857429 52.5681024 294.857429 33.6340224 301.448453 33.6340224 301.448453 29.4607104 283.529189 29.4607104 283.529189 33.6340224 290.097509 33.6340224"></polygon>
                            <polygon id="Fill-20" fill="#283691" mask="url(#mask-2)" points="304.979453 52.5681024 320.768765 52.5681024 320.768765 48.3710304 309.733037 48.3710304 309.733037 45.0557184 319.027949 45.0557184 319.027949 40.9806144 309.733037 40.9806144 309.733037 33.6340224 320.278253 33.6340224 320.278253 29.4607104 304.979453 29.4607104"></polygon>
                            <polygon id="Fill-21" fill="#283691" mask="url(#mask-2)" points="343.608672 52.56768 348.3612 52.56768 348.3612 29.460288 343.608672 29.460288"></polygon>
                            <path d="M185.913394,26.9487504 C186.59557,26.9223504 187.203826,26.6747184 187.711234,26.1900144 C188.204914,25.7010864 188.465746,25.0938864 188.486866,24.3678864 C188.465746,23.6313264 188.204914,23.0278224 187.711234,22.5431184 C187.203826,22.0510224 186.59557,21.7959984 185.913394,21.7801584 C185.212738,21.7959984 184.61821,22.0510224 184.119778,22.5431184 C183.611314,23.0278224 183.352594,23.6313264 183.32989,24.3678864 C183.352594,25.0938864 183.611314,25.7010864 184.119778,26.1900144 C184.61821,26.6747184 185.212738,26.9223504 185.913394,26.9487504" id="Fill-22" fill="#283691" mask="url(#mask-2)"></path>
                            <path d="M277.513685,26.9487504 C278.211701,26.9223504 278.805701,26.6747184 279.309941,26.1900144 C279.816293,25.7010864 280.058117,25.0938864 280.097717,24.3678864 C280.058117,23.6313264 279.816293,23.0278224 279.309941,22.5431184 C278.805701,22.0510224 278.211701,21.7959984 277.513685,21.7801584 C276.827813,21.7959984 276.226949,22.0510224 275.731685,22.5431184 C275.217941,23.0278224 274.951829,23.6313264 274.913285,24.3678864 C274.951829,25.0938864 275.217941,25.7010864 275.731685,26.1900144 C276.226949,26.6747184 276.827813,26.9223504 277.513685,26.9487504" id="Fill-23" fill="#283691" mask="url(#mask-2)"></path>
                            <path d="M345.831394,26.9487504 C346.524658,26.9223504 347.139778,26.6747184 347.640322,26.1900144 C348.125026,25.7010864 348.394834,25.0938864 348.414898,24.3678864 C348.394834,23.6313264 348.125026,23.0278224 347.640322,22.5431184 C347.139778,22.0510224 346.524658,21.7959984 345.831394,21.7801584 C345.14077,21.7959984 344.53621,22.0510224 344.034082,22.5431184 C343.54093,23.0278224 343.26901,23.6313264 343.239442,24.3678864 C343.26901,25.0938864 343.54093,25.7010864 344.034082,26.1900144 C344.53621,26.6747184 345.14077,26.9223504 345.831394,26.9487504" id="Fill-24" fill="#283691" mask="url(#mask-2)"></path>
                            <path d="M58.2260976,29.8751904 C58.2260976,45.6634464 45.4400496,58.4542464 29.6597136,58.4542464 C13.8830736,58.4542464 1.0880496,45.6634464 1.0880496,29.8751904 C1.0880496,14.1112224 13.8830736,1.3082784 29.6597136,1.3082784 C45.4400496,1.3082784 58.2260976,14.1112224 58.2260976,29.8751904" id="Fill-25" fill="#283691" mask="url(#mask-2)"></path>
                            <path d="M29.6604528,59.5398672 C13.3104048,59.5398672 5.28e-05,46.2353232 5.28e-05,29.8741872 C5.28e-05,13.5230832 13.3104048,0.2227632 29.6604528,0.2227632 C46.0083888,0.2227632 59.3182128,13.5230832 59.3182128,29.8741872 C59.3182128,46.2353232 46.0083888,59.5398672 29.6604528,59.5398672 M29.6604528,2.3601072 C14.4793968,2.3601072 2.1342288,14.7026352 2.1342288,29.8741872 C2.1342288,45.0510192 14.4793968,57.3988272 29.6604528,57.3988272 C44.8309488,57.3988272 57.1850928,45.0510192 57.1850928,29.8741872 C57.1850928,14.7026352 44.8309488,2.3601072 29.6604528,2.3601072" id="Fill-26" fill="#FFFFFF" mask="url(#mask-2)"></path>
                            <path d="M39.3372144,25.2257808 C37.9802544,21.1084368 39.1999344,20.8829808 41.5669584,17.7170928 C42.4281264,16.5829488 43.1256144,15.2787888 42.5733264,12.0236688 C44.3516304,14.3056848 45.0739344,16.2265488 44.6995824,19.0883088 C44.1673584,23.3297328 40.0035504,23.8920528 39.3372144,25.2257808" id="Fill-27" fill="#FFFFFF" mask="url(#mask-2)"></path>
                            <path d="M12.6427488,20.4296928 C12.6427488,20.4296928 15.5224608,23.8395168 13.7478528,29.9289408 C12.2393568,35.1292128 18.9597408,39.4149888 18.9597408,39.4149888 C18.9597408,39.4149888 17.7796608,35.7680928 18.5003808,30.1237728 C19.5220608,22.1625888 12.6427488,20.4296928 12.6427488,20.4296928" id="Fill-28" fill="#FFFFFF" mask="url(#mask-2)"></path>
                            <path d="M43.158984,41.1985728 C41.11404,45.2546688 34.5114,48.0388128 29.660664,48.0388128 C24.824712,48.0388128 18.208344,45.2546688 16.164456,41.2202208 L43.158984,41.1985728 Z" id="Fill-29" fill="#FFFFFF" mask="url(#mask-2)"></path>
                            <path d="M32.8769232,5.0186928 C32.8769232,5.0186928 21.7598832,11.0864688 26.0340432,24.0726288 C27.5684112,28.7412048 29.9370192,34.3226928 26.5836912,37.6464528 C26.5836912,37.6464528 34.4772912,35.4684528 32.5463952,27.4201488 C31.3663152,22.4928528 29.7300432,15.8881008 30.0294192,12.3557808 C30.2675472,9.5631888 30.5890992,8.6439408 32.8769232,5.0186928" id="Fill-30" fill="#FFFFFF" mask="url(#mask-2)"></path>
                            <path d="M39.4789824,25.7741616 C39.4789824,25.7741616 41.5904544,29.4379536 39.0555264,33.3847536 C36.5237664,37.3373616 42.7985184,39.9551856 42.7985184,39.9551856 C42.7985184,39.9551856 40.3005504,37.5728496 43.3212384,33.5040816 C45.0108384,31.1988336 44.5984704,25.7540976 39.4789824,25.7741616" id="Fill-31" fill="#FFFFFF" mask="url(#mask-2)"></path>
                            <path d="M20.7277488,38.20872 C23.6977488,34.00848 21.5535408,30.503088 19.5217968,26.307072 C13.7893008,14.439744 23.6977488,9.095856 23.6977488,9.095856 C20.3919408,15.500496 23.4638448,21.556656 24.2590128,23.330208 C26.9201328,29.179392 25.9375248,32.934528 24.3471888,35.208624 C25.0663248,37.79688 24.4723248,39.650688 22.5541008,40.765824 L22.5541008,40.704048 C23.2426128,39.706128 23.3793648,38.39352 22.9659408,36.75144 C21.8017008,37.786848 20.7277488,38.20872 20.7277488,38.20872" id="Fill-32" fill="#FFFFFF" mask="url(#mask-2)"></path>
                            <path d="M33.4172784,24.1406352 C35.9770224,35.1399312 31.8037104,37.9958832 29.2782864,39.9669072 C29.2782864,39.9669072 40.8008304,36.2973072 38.5863984,25.8423792 C37.3661904,20.0966832 37.4739024,11.8831152 39.4190544,9.5630832 C39.4190544,9.5630832 30.6838224,12.4660272 33.4172784,24.1406352" id="Fill-33" fill="#FFFFFF" mask="url(#mask-2)"></path>
                            <path d="M27.1581552,57.2742192 C27.9802512,57.3481392 28.8181872,57.3993552 29.6587632,57.3993552 C30.5035632,57.3993552 31.3473072,57.3481392 32.1614832,57.2742192 L32.9386992,49.2977232 L26.3878032,49.2977232 L27.1581552,57.2742192 Z" id="Fill-34" fill="#FFFFFF" mask="url(#mask-2)"></path>
                            <path d="M24.27216,45.4939584 L24.954336,45.4939584 L24.954336,43.2990624 C24.935856,43.2990624 24.88464,43.3032864 24.812832,43.3080384 C24.753168,43.3249344 24.671856,43.3365504 24.585792,43.3434144 C24.510288,43.3571424 24.42792,43.3613664 24.362448,43.3713984 C24.288528,43.3772064 24.247872,43.3872384 24.232032,43.3872384 L24.159696,43.0287264 L25.014528,42.7240704 L25.6212,42.7240704 L25.6212,45.4939584 L26.2812,45.4939584 L26.2812,45.9332544 L24.27216,45.9332544 L24.27216,45.4939584 Z" id="Fill-35" fill="#283691" mask="url(#mask-2)"></path>
                            <path d="M27.6861552,43.5338112 C27.6861552,43.6040352 27.6903792,43.6499712 27.7310352,43.7022432 C27.7664112,43.7497632 27.8038992,43.7914752 27.8577552,43.8268512 C27.9094992,43.8590592 27.9818352,43.9039392 28.0594512,43.9308672 C28.1370672,43.9688832 28.2099312,44.0053152 28.2954672,44.0406912 C28.4264112,43.9430112 28.5082512,43.8590592 28.5594672,43.7914752 C28.6069872,43.7022432 28.6312752,43.6293792 28.6312752,43.5491232 C28.6312752,43.5063552 28.6154352,43.4577792 28.6001232,43.4181792 C28.5800592,43.3616832 28.5594672,43.3204992 28.5082512,43.2872352 C28.4739312,43.2497472 28.4264112,43.2133152 28.3630512,43.1821632 C28.2986352,43.1584032 28.2241872,43.1531232 28.1370672,43.1531232 C28.0594512,43.1531232 27.9818352,43.1584032 27.9179472,43.1906112 C27.8714832,43.2180672 27.8281872,43.2550272 27.7870032,43.2946272 C27.7516272,43.3294752 27.7268112,43.3696032 27.7035792,43.4192352 C27.6903792,43.4577792 27.6861552,43.5010752 27.6861552,43.5338112 M28.1111952,45.4821312 C28.1988432,45.4821312 28.2764592,45.4694592 28.3493232,45.4478112 C28.4179632,45.4192992 28.4739312,45.3902592 28.5272592,45.3364032 C28.5705552,45.3063072 28.6069872,45.2492832 28.6312752,45.1880352 C28.6603152,45.1262592 28.6708752,45.0718752 28.6708752,45.0111552 C28.6708752,44.9435712 28.6539792,44.8881312 28.6154352,44.8279392 C28.5895632,44.7825312 28.5452112,44.7270912 28.4792112,44.6800992 C28.4264112,44.6325792 28.3503792,44.5882272 28.2558672,44.5412352 C28.1692752,44.5042752 28.0473072,44.4525312 27.9179472,44.4028992 C27.7870032,44.5042752 27.6861552,44.6051232 27.6249072,44.7191712 C27.5895312,44.8179072 27.5694672,44.9298432 27.5694672,45.0317472 C27.5694672,45.1537152 27.5958672,45.2561472 27.6903792,45.3490752 C27.7870032,45.4372512 27.9179472,45.4821312 28.1111952,45.4821312 M29.2437552,43.5063552 C29.2437552,43.6177632 29.2178832,43.7339232 29.1497712,43.8590592 C29.0953872,43.9878912 28.9887312,44.1198912 28.8060432,44.2476672 C28.9628592,44.3300352 29.0795472,44.4361632 29.1772272,44.5686912 C29.2791312,44.7086112 29.3319312,44.8654272 29.3319312,45.0512832 C29.3319312,45.1880352 29.3034192,45.3121152 29.2437552,45.4192992 C29.1862032,45.5338752 29.1064752,45.6315552 28.9992912,45.7139232 C28.8921072,45.7894272 28.7558832,45.8644032 28.6069872,45.8997792 C28.4543952,45.9546912 28.2785712,45.9826752 28.1001072,45.9826752 C27.7120272,45.9826752 27.4137072,45.8881632 27.2056752,45.7324032 C26.9876112,45.5734752 26.8920432,45.3532992 26.8920432,45.0929952 C26.8920432,45.0169632 26.8983792,44.9435712 26.9136912,44.8654272 C26.9290032,44.7825312 26.9627952,44.7033312 27.0034512,44.6188512 C27.0488592,44.5338432 27.1032432,44.4525312 27.1776912,44.3791392 C27.2421072,44.3020512 27.3366192,44.2291872 27.4501392,44.1700512 C27.3191952,44.0824032 27.2056752,43.9878912 27.1460112,43.9039392 C27.0757872,43.8020352 27.0488592,43.6732032 27.0488592,43.5264192 C27.0488592,43.3986432 27.0742032,43.2946272 27.1322832,43.1906112 C27.1861392,43.0855392 27.2611152,42.9868032 27.3577392,42.9097152 C27.4591152,42.8389632 27.5726352,42.7903872 27.7035792,42.7354752 C27.8392752,42.6874272 27.9818352,42.6731712 28.1497392,42.6731712 C28.2722352,42.6731712 28.3952592,42.6874272 28.5272592,42.7164672 C28.6603152,42.7476192 28.7743632,42.7983072 28.8815472,42.8653632 C28.9908432,42.9308352 29.0700432,43.0084512 29.1376272,43.1156352 C29.2078512,43.2228192 29.2437552,43.3548192 29.2437552,43.5063552" id="Fill-36" fill="#283691" mask="url(#mask-2)"></path>
                            <path d="M30.5452752,43.5338112 C30.5452752,43.6040352 30.5722032,43.6499712 30.6022992,43.7022432 C30.6323952,43.7497632 30.6730512,43.7914752 30.7353552,43.8268512 C30.7913232,43.8590592 30.8541552,43.9039392 30.9286032,43.9308672 C31.0035792,43.9688832 31.0822512,44.0053152 31.1704272,44.0406912 C31.2934512,43.9430112 31.3768752,43.8590592 31.4259792,43.7914752 C31.4761392,43.7022432 31.4998992,43.6293792 31.4998992,43.5491232 C31.4998992,43.5063552 31.4882832,43.4577792 31.4761392,43.4181792 C31.4592432,43.3616832 31.4259792,43.3204992 31.3832112,43.2872352 C31.3531152,43.2497472 31.2934512,43.2133152 31.2306192,43.1821632 C31.1762352,43.1584032 31.0912272,43.1531232 31.0146672,43.1531232 C30.9196272,43.1531232 30.8541552,43.1584032 30.8018832,43.1906112 C30.7395792,43.2180672 30.6904752,43.2550272 30.6640752,43.2946272 C30.6239472,43.3294752 30.5954352,43.3696032 30.5827632,43.4192352 C30.5658672,43.4577792 30.5452752,43.5010752 30.5452752,43.5338112 M30.9893232,45.4821312 C31.0695792,45.4821312 31.1535312,45.4694592 31.2179472,45.4478112 C31.2908112,45.4192992 31.3531152,45.3902592 31.3900752,45.3364032 C31.4465712,45.3063072 31.4761392,45.2492832 31.4998992,45.1880352 C31.5273552,45.1262592 31.5326352,45.0718752 31.5326352,45.0111552 C31.5326352,44.9435712 31.5273552,44.8881312 31.4882832,44.8279392 C31.4666352,44.7825312 31.4175312,44.7270912 31.3594512,44.6800992 C31.2934512,44.6325792 31.2179472,44.5882272 31.1302992,44.5412352 C31.0326192,44.5042752 30.9196272,44.4525312 30.8018832,44.4028992 C30.6535152,44.5042752 30.5452752,44.6051232 30.5035632,44.7191712 C30.4565712,44.8179072 30.4380912,44.9298432 30.4380912,45.0317472 C30.4380912,45.1537152 30.4819152,45.2561472 30.5679792,45.3490752 C30.6661872,45.4372512 30.8018832,45.4821312 30.9893232,45.4821312 M32.1155472,43.5063552 C32.1155472,43.6177632 32.0806992,43.7339232 32.0273712,43.8590592 C31.9645392,43.9878912 31.8467952,44.1198912 31.6730832,44.2476672 C31.8335952,44.3300352 31.9539792,44.4361632 32.0558832,44.5686912 C32.1556752,44.7086112 32.2005552,44.8654272 32.2005552,45.0512832 C32.2005552,45.1880352 32.1709872,45.3121152 32.1192432,45.4192992 C32.0558832,45.5338752 31.9729872,45.6315552 31.8626352,45.7139232 C31.7565072,45.7894272 31.6297872,45.8644032 31.4761392,45.8997792 C31.3224912,45.9546912 31.1577552,45.9826752 30.9645072,45.9826752 C30.5880432,45.9826752 30.2913072,45.8881632 30.0779952,45.7324032 C29.8662672,45.5734752 29.7654192,45.3532992 29.7654192,45.0929952 C29.7654192,45.0169632 29.7654192,44.9435712 29.7870672,44.8654272 C29.8007952,44.7825312 29.8282512,44.7033312 29.8810512,44.6188512 C29.9195952,44.5338432 29.9755632,44.4525312 30.0489552,44.3791392 C30.1212912,44.3020512 30.2094672,44.2291872 30.3166512,44.1700512 C30.1857072,44.0824032 30.0779952,43.9878912 30.0241392,43.9039392 C29.9496912,43.8020352 29.9195952,43.6732032 29.9195952,43.5264192 C29.9195952,43.3986432 29.9444112,43.2946272 29.9993232,43.1906112 C30.0489552,43.0855392 30.1323792,42.9868032 30.2210832,42.9097152 C30.3208752,42.8389632 30.4497072,42.7903872 30.5827632,42.7354752 C30.7089552,42.6874272 30.8541552,42.6731712 31.0225872,42.6731712 C31.1450832,42.6731712 31.2702192,42.6874272 31.3900752,42.7164672 C31.5273552,42.7476192 31.6377072,42.7983072 31.7480592,42.8653632 C31.8594672,42.9308352 31.9497552,43.0084512 32.0110032,43.1156352 C32.0759472,43.2228192 32.1155472,43.3548192 32.1155472,43.5063552" id="Fill-37" fill="#283691" mask="url(#mask-2)"></path>
                            <path d="M33.6812784,44.3312496 C33.5244624,44.3312496 33.3576144,44.3645136 33.1817904,44.4405456 L32.8465104,44.2599696 L32.9668944,42.7250736 L34.8740304,42.7250736 L34.8740304,43.4985936 L34.3613424,43.4985936 L34.3613424,43.1770416 L33.4927824,43.1770416 L33.4357584,43.9299696 C33.4927824,43.9220496 33.5545584,43.9046256 33.6258384,43.8824496 C33.6812784,43.8740016 33.7800144,43.8602736 33.8798064,43.8602736 C34.0323984,43.8602736 34.1939664,43.8824496 34.3249104,43.9220496 C34.4743344,43.9674576 34.5794064,44.0371536 34.6855344,44.1195216 C34.7800464,44.2024176 34.8824784,44.3069616 34.9395024,44.4352656 C34.9944144,44.5609296 35.0329584,44.7108816 35.0329584,44.8803696 C35.0329584,45.0656976 34.9933584,45.2277936 34.9321104,45.3629616 C34.8613584,45.5002416 34.7647344,45.6164016 34.6554384,45.7077456 C34.5387504,45.8001456 34.3872144,45.8666736 34.2435984,45.9104976 C34.0888944,45.9553776 33.9215184,45.9828336 33.7541424,45.9828336 C33.6749424,45.9828336 33.6041904,45.9828336 33.5054544,45.9712176 C33.4172784,45.9606576 33.3254064,45.9527376 33.2287824,45.9332016 C33.1321584,45.9173616 33.0223344,45.8930736 32.9389104,45.8703696 C32.8422864,45.8423856 32.7525264,45.8033136 32.6727984,45.7568496 L32.8301424,45.3106896 C33.0107184,45.3597936 33.1564464,45.4046736 33.2921424,45.4189296 C33.4172784,45.4395216 33.5244624,45.4553616 33.6342864,45.4553616 C33.8412624,45.4553616 34.0308144,45.4115376 34.1585904,45.3180816 C34.2958704,45.2277936 34.3476144,45.0778416 34.3476144,44.8803696 C34.3476144,44.7874416 34.3428624,44.7077136 34.3043184,44.6322096 C34.2668304,44.5683216 34.2156144,44.5102416 34.1585904,44.4643056 C34.0999824,44.4183696 34.0308144,44.3782416 33.9378864,44.3528976 C33.8613264,44.3396976 33.7852944,44.3312496 33.6812784,44.3312496" id="Fill-38" fill="#283691" mask="url(#mask-2)"></path>
                            <path d="M111.242155,41.3140464 C111.297067,40.7226864 111.368347,40.0727184 111.433819,39.3688944 C111.484507,38.6682384 111.533611,38.0314704 111.533611,37.4395824 L111.533611,29.4599184 L106.778971,29.4599184 L106.778971,52.5683664 L111.533611,52.5683664 L111.533611,46.1800944 L113.777611,43.4946864 L119.921947,52.5683664 L125.662891,52.5683664 L116.977819,39.9132624 L124.713019,29.4599184 L119.325307,29.4599184 L113.198923,37.7188944 C112.845691,38.2078224 112.493515,38.7648624 112.152427,39.4211664 C111.806059,40.0611024 111.492955,40.6978704 111.242155,41.3140464" id="Fill-39" fill="#283691" mask="url(#mask-2)"></path>
                            <path d="M149.306573,26.9487504 C150.005117,26.9212944 150.599645,26.6747184 151.110221,26.1900144 C151.611293,25.7010864 151.857869,25.0938864 151.883741,24.3684144 C151.857869,23.6307984 151.611293,23.0288784 151.110221,22.5441744 C150.599645,22.0510224 150.005117,21.7970544 149.306573,21.7796304 C148.616477,21.7970544 148.032509,22.0510224 147.522461,22.5441744 C147.024557,23.0288784 146.762669,23.6307984 146.718845,24.3684144 C146.762669,25.0938864 147.024557,25.7010864 147.522461,26.1900144 C148.032509,26.6747184 148.616477,26.9212944 149.306573,26.9487504 M141.905597,26.9487504 C142.600445,26.9212944 143.201837,26.6747184 143.687597,26.1900144 C144.189197,25.7010864 144.454253,25.0938864 144.473261,24.3684144 C144.454253,23.6307984 144.189197,23.0288784 143.687597,22.5441744 C143.201837,22.0510224 142.600445,21.7970544 141.905597,21.7796304 C141.221309,21.7970544 140.625197,22.0510224 140.120957,22.5441744 C139.602989,23.0288784 139.349549,23.6307984 139.307837,24.3684144 C139.349549,25.0938864 139.602989,25.7010864 140.120957,26.1900144 C140.625197,26.6747184 141.221309,26.9212944 141.905597,26.9487504 M145.643837,52.8761904 C147.415277,52.8761904 148.994525,52.5498864 150.390029,51.9220944 C151.808765,51.2900784 152.898557,50.3333424 153.704285,49.0487184 C154.513181,47.7535344 154.933997,46.1658384 154.942445,44.2148784 L154.942445,29.4599184 L150.187277,29.4599184 L150.187277,43.9339824 C150.187277,45.5987664 149.823485,46.7989104 149.092205,47.5307184 C148.339805,48.2561904 147.181373,48.6009744 145.643837,48.5898864 C144.075677,48.6009744 142.892957,48.2561904 142.130525,47.5307184 C141.398189,46.7989104 141.023837,45.5987664 141.023837,43.9339824 L141.023837,29.4599184 L136.268669,29.4599184 L136.268669,44.2148784 C136.279229,46.1658384 136.683677,47.7535344 137.511053,49.0487184 C138.328397,50.3333424 139.450397,51.2900784 140.841677,51.9220944 C142.236125,52.5498864 143.842301,52.8761904 145.643837,52.8761904" id="Fill-40" fill="#283691" mask="url(#mask-2)"></path>
                            <path d="M178.21357,52.7771904 L178.700914,52.7771904 L178.700914,29.4596544 L174.242482,29.4596544 L174.242482,39.1352544 C174.242482,39.7044384 174.286834,40.2963264 174.33013,40.9452384 C174.392434,41.5925664 174.428338,42.1480224 174.474802,42.6168864 C174.520738,43.0857504 174.558226,43.3333824 174.569314,43.3618944 C174.552418,43.3455264 174.406162,43.1433024 174.102562,42.7678944 C173.822722,42.4030464 173.452066,41.9774784 173.052898,41.4933024 C172.633666,40.9927584 172.244002,40.5677184 171.848002,40.1954784 L160.172866,29.2616544 L159.706642,29.2616544 L159.706642,52.5681024 L164.17141,52.5681024 L164.17141,42.8750784 C164.17141,42.3016704 164.121778,41.7055584 164.066866,41.0381664 C164.01829,40.4114304 163.963906,39.8522784 163.913746,39.3892224 C163.847218,38.9404224 163.824514,38.6859264 163.824514,38.6685024 C163.824514,38.6859264 163.995586,38.8733664 164.275426,39.2392704 C164.562658,39.6136224 164.92645,40.0423584 165.341458,40.5307584 C165.764386,41.0186304 166.170418,41.4537024 166.556914,41.8238304 L178.21357,52.7771904 Z" id="Fill-41" fill="#283691" mask="url(#mask-2)"></path>
                            <path d="M202.127746,52.7771904 L202.602418,52.7771904 L212.725762,29.4596544 L208.122658,29.4596544 L204.23077,38.3638464 C203.943538,39.0555264 203.652082,39.8163744 203.379106,40.6089024 C203.111938,41.4125184 202.888594,42.1084224 202.729666,42.6902784 C202.552786,43.2584064 202.460386,43.5688704 202.460386,43.5963264 C202.450882,43.5688704 202.367458,43.2515424 202.189522,42.6902784 C202.022674,42.0989184 201.79933,41.4061824 201.52741,40.5957024 C201.258658,39.7947264 200.971954,39.0423264 200.656738,38.3638464 L196.679842,29.4596544 L191.595202,29.4596544 L202.127746,52.7771904 Z" id="Fill-42" fill="#283691" mask="url(#mask-2)"></path>
                            <path d="M248.244744,45.369192 C249.68988,44.72556 250.779144,43.810008 251.543688,42.642072 C252.312456,41.473608 252.708984,39.982536 252.708984,38.1942 C252.677832,35.36148 251.750664,33.205656 249.95916,31.703496 C248.162376,30.214536 245.62692,29.464776 242.36916,29.460552 L235.988808,29.460552 L235.988808,52.567944 L240.747672,52.567944 L240.747672,46.814856 L242.36916,46.814856 C242.594088,46.814856 242.819544,46.809576 243.050808,46.79796 C243.284712,46.77948 243.526536,46.751496 243.73668,46.720872 L247.545144,52.567944 L253.04268,52.567944 L248.244744,45.369192 Z M240.747672,42.689064 L240.747672,33.633864 L242.236104,33.633864 C244.133736,33.623832 245.532936,33.978648 246.462744,34.68564 C247.36404,35.40636 247.83396,36.572712 247.812312,38.1942 C247.83396,39.816216 247.38252,40.967256 246.486504,41.656296 C245.585208,42.358008 244.174392,42.695928 242.236104,42.689064 L240.747672,42.689064 Z" id="Fill-43" fill="#283691" mask="url(#mask-2)"></path>
                            <path d="M263.520101,52.8764544 C265.822709,52.8753984 267.702917,52.2924864 269.148581,51.1562304 C270.615365,50.0294784 271.369349,48.3974304 271.391525,46.2632544 C271.389413,44.3085984 270.846629,42.7726464 269.743637,41.6649024 C268.676549,40.5502944 267.112085,39.5998944 265.068197,38.7651264 L263.891285,38.2566624 C262.889141,37.8442944 262.141493,37.4340384 261.664181,37.0285344 C261.192149,36.6098304 260.962469,36.0712704 260.962469,35.3679744 C260.971973,34.7829504 261.166277,34.2929664 261.560165,33.9207264 C261.981509,33.5368704 262.542773,33.3473184 263.230229,33.3309504 C263.915045,33.3309504 264.494261,33.4830144 264.978437,33.8024544 C265.458917,34.1245344 265.907717,34.6419744 266.314805,35.3679744 L270.006581,32.9851104 C269.236229,31.6355424 268.283717,30.6539904 267.182837,30.0536544 C266.061365,29.4601824 264.759317,29.1718944 263.230229,29.1914304 C261.086021,29.2215264 259.401701,29.8361184 258.175157,30.9929664 C256.946501,32.1561504 256.301813,33.6472224 256.274885,35.4730464 C256.301813,37.3780704 256.826645,38.8596384 257.849909,39.9657984 C258.857333,41.0592864 260.256533,41.9505504 261.981509,42.6422304 L263.179013,43.1596704 C264.265637,43.5963264 265.123109,44.0414304 265.723973,44.4786144 C266.326949,44.9231904 266.632133,45.5356704 266.642165,46.3192224 C266.622629,47.0003424 266.333285,47.5621344 265.759877,47.9892864 C265.194917,48.4301664 264.417173,48.6461184 263.415029,48.6667104 C262.249733,48.6329184 261.304613,48.3668064 260.571749,47.8409184 C259.839413,47.3150304 259.202645,46.6201824 258.725861,45.7711584 L254.849285,48.0177984 C255.546773,49.4196384 256.596965,50.5828224 258.057413,51.4735584 C259.492517,52.3722144 261.304613,52.8347424 263.520101,52.8764544" id="Fill-44" fill="#283691" mask="url(#mask-2)"></path>
                            <path d="M331.944571,52.8764544 C334.235035,52.8753984 336.115243,52.2924864 337.567771,51.1562304 C339.015547,50.0294784 339.785899,48.3974304 339.827611,46.2632544 C339.811243,44.3085984 339.259483,42.7726464 338.180251,41.6649024 C337.083067,40.5502944 335.521771,39.5998944 333.504283,38.7651264 L332.311003,38.2566624 C331.291435,37.8442944 330.547483,37.4340384 330.077563,37.0285344 C329.620843,36.6098304 329.364763,36.0712704 329.379547,35.3679744 C329.379547,34.7829504 329.590747,34.2929664 330.009451,33.9207264 C330.414427,33.5368704 330.948235,33.3473184 331.669483,33.3309504 C332.340043,33.3309504 332.916619,33.4830144 333.404491,33.8024544 C333.884443,34.1245344 334.323211,34.6419744 334.723963,35.3679744 L338.418379,32.9851104 C337.636411,31.6355424 336.689179,30.6539904 335.589883,30.0536544 C334.480555,29.4601824 333.173755,29.1718944 331.669483,29.1914304 C329.527387,29.2215264 327.824059,29.8361184 326.571115,30.9929664 C325.349851,32.1561504 324.715723,33.6472224 324.699355,35.4730464 C324.715723,37.3780704 325.244779,38.8596384 326.265403,39.9657984 C327.283915,41.0592864 328.675723,41.9505504 330.414427,42.6422304 L331.599787,43.1596704 C332.683243,43.5963264 333.537547,44.0414304 334.142107,44.4786144 C334.742443,44.9231904 335.056603,45.5356704 335.066107,46.3192224 C335.056603,47.0003424 334.769371,47.5621344 334.199659,47.9892864 C333.615691,48.4301664 332.827387,48.6461184 331.823131,48.6667104 C330.663115,48.6329184 329.732251,48.3668064 328.993051,47.8409184 C328.258075,47.3150304 327.629755,46.6201824 327.141883,45.7711584 L323.262139,48.0177984 C323.961211,49.4196384 325.022491,50.5828224 326.477659,51.4735584 C327.906427,52.3722144 329.732251,52.8347424 331.944571,52.8764544" id="Fill-45" fill="#283691" mask="url(#mask-2)"></path>
                            <path d="M85.4645088,52.8764544 C87.7581408,52.8753984 89.6483808,52.2924864 91.0914048,51.1562304 C92.5455168,50.0294784 93.2878848,48.3974304 93.3348768,46.2632544 C93.3327648,44.3085984 92.7709728,42.7726464 91.6986048,41.6649024 C90.6151488,40.5502944 89.0438208,39.5998944 87.0210528,38.7651264 L85.8203808,38.2566624 C84.8166528,37.8442944 84.0616128,37.4340384 83.6064768,37.0285344 C83.1492288,36.6098304 82.8910368,36.0712704 82.8910368,35.3679744 C82.9269408,34.7829504 83.1201888,34.2929664 83.5235808,33.9207264 C83.9259168,33.5368704 84.4840128,33.3473184 85.1820288,33.3309504 C85.8615648,33.3309504 86.4323328,33.4830144 86.9228448,33.8024544 C87.4033248,34.1245344 87.8420928,34.6419744 88.2333408,35.3679744 L91.9404288,32.9851104 C91.1621568,31.6355424 90.2275968,30.6539904 89.1024288,30.0536544 C88.0073568,29.4601824 86.6863008,29.1718944 85.1820288,29.1914304 C83.0467968,29.2215264 81.3339648,29.8361184 80.1121728,30.9929664 C78.8740128,32.1561504 78.2356608,33.6472224 78.2097888,35.4730464 C78.2356608,37.3780704 78.7594368,38.8596384 79.7805888,39.9657984 C80.8165248,41.0592864 82.1782368,41.9505504 83.9259168,42.6422304 L85.1096928,43.1596704 C86.2047648,43.5963264 87.0580128,44.0414304 87.6551808,44.4786144 C88.2708288,44.9231904 88.5812928,45.5356704 88.5897408,46.3192224 C88.5812928,47.0003424 88.2819168,47.5621344 87.7100928,47.9892864 C87.1298208,48.4301664 86.3504928,48.6461184 85.3636608,48.6667104 C84.2078688,48.6329184 83.2543008,48.3668064 82.5045408,47.8409184 C81.7674528,47.3150304 81.1507488,46.6201824 80.6581248,45.7711584 L76.7979168,48.0177984 C77.4848448,49.4196384 78.5619648,50.5828224 79.9886208,51.4735584 C81.4284768,52.3722144 83.2543008,52.8347424 85.4645088,52.8764544" id="Fill-46" fill="#283691" mask="url(#mask-2)"></path>
                            <path d="M336.270158,13.2295152 L333.828158,13.2295152 L333.828158,12.7970832 L334.599038,12.7970832 L334.599038,5.6923152 L333.874622,5.6923152 L333.874622,5.2604112 L339.00467,5.2604112 L339.00467,6.7208592 L338.560622,6.7208592 L338.560622,5.6923152 L335.125454,5.6923152 L335.125454,8.8127952 C335.20307,8.8127952 335.327678,8.8106832 335.49875,8.8064592 C335.67035,8.8027632 335.867294,8.7969552 336.089054,8.7890352 C336.310814,8.7816432 336.545246,8.7758352 336.790238,8.7716112 C337.03523,8.7679152 337.269662,8.7642192 337.491422,8.7599952 C337.713182,8.7562992 337.910126,8.7520752 338.082254,8.7483792 C338.252798,8.7446832 338.377406,8.7425712 338.45555,8.7425712 L338.45555,9.2684592 L335.125454,9.2214672 L335.125454,12.7970832 L336.270158,12.7970832 L336.270158,13.2295152 Z" id="Fill-47" fill="#283691" mask="url(#mask-2)"></path>
                            <path d="M71.2069248,13.2295152 L68.7649248,13.2295152 L68.7649248,12.7970832 L69.5358048,12.7970832 L69.5358048,5.6923152 L68.8113888,5.6923152 L68.8113888,5.2604112 L73.9414368,5.2604112 L73.9414368,6.7208592 L73.4973888,6.7208592 L73.4973888,5.6923152 L70.0616928,5.6923152 L70.0616928,8.8127952 C70.1398368,8.8127952 70.2644448,8.8106832 70.4355168,8.8064592 C70.6065888,8.8027632 70.8035328,8.7969552 71.0252928,8.7890352 C71.2470528,8.7816432 71.4814848,8.7758352 71.7264768,8.7716112 C71.9719968,8.7679152 72.2059008,8.7642192 72.4281888,8.7599952 C72.6494208,8.7562992 72.8458368,8.7520752 73.0179648,8.7483792 C73.1890368,8.7446832 73.3136448,8.7425712 73.3917888,8.7425712 L73.3917888,9.2684592 L70.0616928,9.2214672 L70.0616928,12.7970832 L71.2069248,12.7970832 L71.2069248,13.2295152 Z" id="Fill-48" fill="#283691" mask="url(#mask-2)"></path>
                            <path d="M80.7764496,12.7969248 L81.5483856,12.7969248 L81.5483856,5.6921568 L80.8239696,5.6921568 L80.8239696,5.2602528 L85.9534896,5.2602528 L85.9534896,6.7207008 L85.5094416,6.7207008 L85.5094416,5.6921568 L82.0737456,5.6921568 L82.0737456,8.8126368 C82.1513616,8.8126368 82.2764976,8.8105248 82.4475696,8.8063008 C82.6186416,8.8026048 82.8155856,8.7967968 83.0373456,8.7888768 C83.2596336,8.7814848 83.4935376,8.7756768 83.7385296,8.7714528 C83.9840496,8.7677568 84.2179536,8.7640608 84.4397136,8.7598368 C84.6620016,8.7556128 84.8584176,8.7519168 85.0305456,8.7482208 C85.2016176,8.7445248 85.3256976,8.7424128 85.4043696,8.7424128 L85.4043696,9.2683008 L82.0737456,9.2213088 L82.0737456,12.7969248 L85.6847376,12.7969248 L85.6847376,11.7572928 L86.1520176,11.7572928 L86.1520176,13.2293568 L80.7764496,13.2293568 L80.7764496,12.7969248 Z" id="Fill-49" fill="#283691" mask="url(#mask-2)"></path>
                            <path d="M117.690038,13.2295152 L117.690038,12.7970832 L118.402838,12.7970832 L118.402838,5.6806992 L117.690038,5.6806992 L117.690038,5.2487952 L119.66423,5.2487952 L119.66423,5.6806992 L118.928726,5.6806992 L118.928726,12.7970832 L119.66423,12.7970832 L119.66423,13.2295152 L117.690038,13.2295152 Z M118.379606,3.8696592 C118.379606,3.7529712 118.420262,3.6537072 118.502102,3.5718672 C118.583414,3.4900272 118.678982,3.4493712 118.788278,3.4493712 C118.905494,3.4493712 119.00423,3.4900272 119.086598,3.5718672 C119.16791,3.6537072 119.209094,3.7529712 119.209094,3.8696592 C119.209094,3.9789552 119.16791,4.0739952 119.086598,4.1558352 C119.00423,4.2376752 118.905494,4.2788592 118.788278,4.2788592 C118.678982,4.2788592 118.583414,4.2376752 118.502102,4.1558352 C118.420262,4.0739952 118.379606,3.9789552 118.379606,3.8696592 L118.379606,3.8696592 Z" id="Fill-50" fill="#283691" mask="url(#mask-2)"></path>
                            <path d="M139.494274,12.7969248 L140.265682,12.7969248 L140.265682,5.6921568 L139.541266,5.6921568 L139.541266,5.2602528 L144.670786,5.2602528 L144.670786,6.7207008 L144.226738,6.7207008 L144.226738,5.6921568 L140.791042,5.6921568 L140.791042,8.8126368 C140.869186,8.8126368 140.993794,8.8105248 141.164866,8.8063008 C141.335938,8.8026048 141.532882,8.7967968 141.754642,8.7888768 C141.97693,8.7814848 142.210834,8.7756768 142.455826,8.7714528 C142.701346,8.7677568 142.93525,8.7640608 143.15701,8.7598368 C143.379298,8.7556128 143.575714,8.7519168 143.747842,8.7482208 C143.918914,8.7445248 144.042994,8.7424128 144.121666,8.7424128 L144.121666,9.2683008 L140.791042,9.2213088 L140.791042,12.7969248 L144.402034,12.7969248 L144.402034,11.7572928 L144.869314,11.7572928 L144.869314,13.2293568 L139.494274,13.2293568 L139.494274,12.7969248 Z" id="Fill-51" fill="#283691" mask="url(#mask-2)"></path>
                            <path d="M176.640922,12.7969248 L177.41233,12.7969248 L177.41233,5.6921568 L176.687914,5.6921568 L176.687914,5.2602528 L181.817434,5.2602528 L181.817434,6.7207008 L181.373386,6.7207008 L181.373386,5.6921568 L177.938218,5.6921568 L177.938218,8.8126368 C178.015834,8.8126368 178.140442,8.8105248 178.312042,8.8063008 C178.483114,8.8026048 178.67953,8.7967968 178.901818,8.7888768 C179.124106,8.7814848 179.357482,8.7756768 179.602474,8.7714528 C179.848522,8.7677568 180.081898,8.7640608 180.303658,8.7598368 C180.525418,8.7556128 180.722362,8.7519168 180.89449,8.7482208 C181.065562,8.7445248 181.19017,8.7424128 181.268314,8.7424128 L181.268314,9.2683008 L177.938218,9.2213088 L177.938218,12.7969248 L181.548682,12.7969248 L181.548682,11.7572928 L182.015962,11.7572928 L182.015962,13.2293568 L176.640922,13.2293568 L176.640922,12.7969248 Z" id="Fill-52" fill="#283691" mask="url(#mask-2)"></path>
                            <path d="M214.126334,12.7969248 L214.897742,12.7969248 L214.897742,5.6921568 L214.173326,5.6921568 L214.173326,5.2602528 L219.302846,5.2602528 L219.302846,6.7207008 L218.858798,6.7207008 L218.858798,5.6921568 L215.42363,5.6921568 L215.42363,8.8126368 C215.501246,8.8126368 215.625854,8.8105248 215.797454,8.8063008 C215.967998,8.8026048 216.164942,8.7967968 216.38723,8.7888768 C216.60899,8.7814848 216.843422,8.7756768 217.088414,8.7714528 C217.333406,8.7677568 217.567838,8.7640608 217.78907,8.7598368 C218.011358,8.7556128 218.207774,8.7519168 218.379902,8.7482208 C218.550974,8.7445248 218.675582,8.7424128 218.753726,8.7424128 L218.753726,9.2683008 L215.42363,9.2213088 L215.42363,12.7969248 L219.034094,12.7969248 L219.034094,11.7572928 L219.501374,11.7572928 L219.501374,13.2293568 L214.126334,13.2293568 L214.126334,12.7969248 Z" id="Fill-53" fill="#283691" mask="url(#mask-2)"></path>
                            <path d="M226.454395,13.2295152 L226.454395,12.7970832 L227.190427,12.7970832 L227.190427,5.6806992 L226.454395,5.6806992 L226.454395,5.2487952 L229.562731,5.2487952 C229.874251,5.2487952 230.169931,5.2936752 230.450299,5.3829072 C230.731195,5.4726672 230.976187,5.6088912 231.186859,5.7921072 C231.397003,5.9747952 231.564907,6.2065872 231.688987,6.4869552 C231.813595,6.7678512 231.876427,7.0989072 231.876427,7.4806512 C231.876427,7.7066352 231.845275,7.9558512 231.782971,8.2282992 C231.720667,8.5012752 231.605563,8.7541872 231.437659,8.9875632 C231.270283,9.2214672 231.042187,9.4184112 230.754955,9.5778672 C230.466139,9.7378512 230.095483,9.8175792 229.644571,9.8175792 L227.716315,9.8175792 L227.716315,12.7970832 L228.697339,12.7970832 L228.697339,13.2295152 L226.454395,13.2295152 Z M229.632955,9.3851472 C229.843099,9.3851472 230.049547,9.3561072 230.251771,9.2974992 C230.453995,9.2388912 230.637739,9.1369872 230.800891,8.9923152 C230.965099,8.8476432 231.097099,8.6565072 231.198475,8.4178512 C231.299851,8.1797232 231.350011,7.8771792 231.350011,7.5096912 C231.350011,7.2050352 231.304075,6.9373392 231.210091,6.7066032 C231.116635,6.4763952 230.992027,6.2847312 230.836267,6.1321392 C230.680507,5.9800752 230.495179,5.8665552 230.281339,5.7921072 C230.066971,5.7181872 229.838347,5.6806992 229.597051,5.6806992 L227.716315,5.6806992 L227.716315,9.3851472 L229.632955,9.3851472 Z" id="Fill-54" fill="#283691" mask="url(#mask-2)"></path>
                            <path d="M250.969277,12.7969248 L251.740685,12.7969248 L251.740685,5.6921568 L251.016269,5.6921568 L251.016269,5.2602528 L256.145789,5.2602528 L256.145789,6.7207008 L255.701741,6.7207008 L255.701741,5.6921568 L252.266573,5.6921568 L252.266573,8.8126368 C252.344189,8.8126368 252.468797,8.8105248 252.640397,8.8063008 C252.811469,8.8026048 253.008413,8.7967968 253.230701,8.7888768 C253.452461,8.7814848 253.686365,8.7756768 253.931885,8.7714528 C254.176877,8.7677568 254.410781,8.7640608 254.632013,8.7598368 C254.854301,8.7556128 255.050717,8.7519168 255.222845,8.7482208 C255.393917,8.7445248 255.519053,8.7424128 255.596669,8.7424128 L255.596669,9.2683008 L252.266573,9.2213088 L252.266573,12.7969248 L255.877037,12.7969248 L255.877037,11.7572928 L256.344317,11.7572928 L256.344317,13.2293568 L250.969277,13.2293568 L250.969277,12.7969248 Z" id="Fill-55" fill="#283691" mask="url(#mask-2)"></path>
                            <path d="M263.29739,13.2295152 L263.29739,12.7970832 L264.033422,12.7970832 L264.033422,5.6806992 L263.29739,5.6806992 L263.29739,5.2487952 L266.382494,5.2487952 C266.694014,5.2487952 266.991806,5.2878672 267.27587,5.3654832 C267.559934,5.4430992 267.810206,5.5661232 268.023518,5.7334992 C268.237886,5.9014032 268.407902,6.1189392 268.53251,6.3876912 C268.65659,6.6564432 268.719422,6.9816912 268.719422,7.3634352 C268.719422,7.5661872 268.69619,7.7805552 268.649198,8.0060112 C268.602734,8.2325232 268.51667,8.4463632 268.391534,8.6491152 C268.267454,8.8513392 268.101662,9.0308592 267.895742,9.1866192 C267.688766,9.3423792 267.425822,9.4553712 267.10691,9.5250672 L268.59059,12.7970832 L269.373614,12.8789232 L269.38523,13.1709072 C269.260622,13.2178992 269.12651,13.2527472 268.982366,13.2765072 C268.837694,13.2997392 268.719422,13.3113552 268.625966,13.3113552 C268.470206,13.3113552 268.357214,13.2743952 268.286462,13.2004752 C268.216238,13.1265552 268.150238,13.0230672 268.087934,12.8905392 L266.604254,9.5836752 L264.55931,9.5836752 L264.55931,12.7970832 L265.540862,12.7970832 L265.540862,13.2295152 L263.29739,13.2295152 Z M266.452718,9.1512432 C266.662862,9.1512432 266.871422,9.1280112 267.076814,9.0810192 C267.28379,9.0340272 267.46859,8.9463792 267.632798,8.8175472 C267.796478,8.6881872 267.930062,8.5107792 268.035662,8.2837392 C268.140734,8.0572272 268.193006,7.7599632 268.193006,7.3924752 C268.193006,7.0878192 268.14707,6.8259312 268.053086,6.6073392 C267.960158,6.3882192 267.831326,6.2108112 267.667118,6.0735312 C267.503966,5.9367792 267.314942,5.8375152 267.101102,5.7746832 C266.886734,5.7123792 266.65811,5.6806992 266.416814,5.6806992 L264.55931,5.6806992 L264.55931,9.1512432 L266.452718,9.1512432 Z" id="Fill-56" fill="#283691" mask="url(#mask-2)"></path>
                            <path d="M276.512808,13.2295152 L276.512808,12.7970832 L277.226136,12.7970832 L277.226136,5.6806992 L276.512808,5.6806992 L276.512808,5.2487952 L278.487528,5.2487952 L278.487528,5.6806992 L277.751496,5.6806992 L277.751496,12.7970832 L278.487528,12.7970832 L278.487528,13.2295152 L276.512808,13.2295152 Z M277.202376,3.8696592 C277.202376,3.7529712 277.243032,3.6537072 277.324872,3.5718672 C277.406712,3.4900272 277.50228,3.4493712 277.611048,3.4493712 C277.728264,3.4493712 277.827528,3.4900272 277.909368,3.5718672 C277.99068,3.6537072 278.031864,3.7529712 278.031864,3.8696592 C278.031864,3.9789552 277.99068,4.0739952 277.909368,4.1558352 C277.827528,4.2376752 277.728264,4.2788592 277.611048,4.2788592 C277.50228,4.2788592 277.406712,4.2376752 277.324872,4.1558352 C277.243032,4.0739952 277.202376,3.9789552 277.202376,3.8696592 L277.202376,3.8696592 Z" id="Fill-57" fill="#283691" mask="url(#mask-2)"></path>
                            <path d="M311.883686,13.2295152 L311.883686,12.7970832 L312.736934,12.7970832 L312.176198,10.9860432 L308.845574,10.9860432 L308.284838,12.7970832 L309.172406,12.7970832 L309.172406,13.2295152 L307.069382,13.2295152 L307.069382,12.7970832 L307.747334,12.7970832 C307.82495,12.5557872 307.92791,12.2363472 308.056742,11.8387632 C308.185574,11.4417072 308.325494,11.0018832 308.477558,10.5187632 C308.629094,10.0356432 308.791718,9.5350992 308.962262,9.0171312 C309.133862,8.4991632 309.295958,8.0002032 309.447494,7.5213072 C309.59903,7.0424112 309.739478,6.6041712 309.86831,6.2065872 C309.996614,5.8095312 310.099574,5.4900912 310.178246,5.2487952 L310.855142,5.2487952 L313.298198,12.7970832 L313.951862,12.7970832 L313.951862,13.2295152 L311.883686,13.2295152 Z M310.890518,6.9547632 L310.528838,5.7625392 L310.505606,5.7625392 L310.131254,6.9547632 C310.099574,7.0482192 310.040966,7.2314352 309.955958,7.5038832 C309.870422,7.7763312 309.77063,8.0862672 309.657638,8.4326352 C309.544646,8.7795312 309.43007,9.1396272 309.312854,9.5134512 C309.196166,9.8878032 309.09479,10.2225552 309.009254,10.5187632 L312.024134,10.5187632 L310.890518,6.9547632 Z" id="Fill-58" fill="#283691" mask="url(#mask-2)"></path>
                        </g>
                    </g>
                </g>
            </g>
        </g>
    </g>
</svg>